<?xml version="1.0" standalone="no"?>
<!DOCTYPE svg PUBLIC "-//W3C//DTD SVG 20010904//EN"
 "http://www.w3.org/TR/2001/REC-SVG-20010904/DTD/svg10.dtd">
<svg version="1.0" xmlns="http://www.w3.org/2000/svg"
 width="512.000000pt" height="512.000000pt" viewBox="0 0 512.000000 512.000000"
 preserveAspectRatio="xMidYMid meet">

<g transform="translate(0.000000,512.000000) scale(0.100000,-0.100000)"
fill="#000000" stroke="none">
<path d="M2325 5109 c-502 -51 -966 -238 -1358 -546 -107 -83 -362 -344 -444
-453 -268 -359 -437 -765 -499 -1205 -26 -180 -26 -510 0 -690 62 -438 233
-850 499 -1204 93 -123 285 -321 412 -426 777 -639 1859 -765 2754 -319 280
139 449 261 676 489 218 218 343 388 476 647 239 470 327 1010 249 1536 -61
418 -231 820 -491 1169 -94 125 -366 397 -490 490 -352 263 -748 430 -1172
494 -153 23 -473 33 -612 18z m774 -1262 c32 -182 118 -345 229 -432 88 -69
260 -135 350 -135 l32 0 0 -220 0 -220 -62 0 c-141 0 -266 35 -438 122 -63 32
-114 58 -115 58 0 0 1 -118 3 -262 4 -391 -12 -742 -38 -848 -67 -265 -248
-493 -487 -614 -105 -53 -217 -78 -348 -79 -145 -1 -221 16 -350 78 -260 126
-431 388 -464 711 -18 179 18 349 105 499 57 97 201 244 290 297 124 72 280
120 447 136 l87 8 0 -228 0 -228 -27 -6 c-86 -18 -215 -59 -263 -82 -72 -35
-145 -108 -178 -180 -24 -50 -27 -69 -27 -157 0 -91 3 -105 30 -160 42 -83
119 -158 202 -198 63 -30 75 -32 173 -32 130 0 185 21 258 99 60 63 86 112
115 214 22 76 22 84 24 987 1 501 2 916 2 923 1 9 52 12 220 12 l219 0 11 -63z"/>
</g>
</svg>
